<svg width="90" height="56" viewBox="0 0 90 56" fill="none" xmlns="http://www.w3.org/2000/svg">
<rect width="90" height="56" fill="white"/>
<g clip-path="url(#clip0_1_7151)">
<path d="M46.2495 35.4994V30.9993C46.2495 30.8004 46.1704 30.6096 46.0298 30.469C45.8891 30.3283 45.6984 30.2493 45.4995 30.2493H42.4995C42.3005 30.2493 42.1098 30.3283 41.9691 30.469C41.8285 30.6096 41.7495 30.8004 41.7495 30.9993V35.4994C41.7495 35.6983 41.6704 35.889 41.5298 36.0297C41.3892 36.1703 41.1984 36.2494 40.9995 36.2494L36.5001 36.25C36.4016 36.25 36.3041 36.2306 36.2131 36.1929C36.122 36.1552 36.0394 36.1 35.9697 36.0304C35.9 35.9607 35.8448 35.878 35.8071 35.787C35.7694 35.696 35.75 35.5985 35.75 35.5V26.8318C35.75 26.7273 35.7718 26.624 35.8141 26.5284C35.8564 26.4329 35.9181 26.3472 35.9954 26.2769L43.4949 19.458C43.633 19.3325 43.8129 19.2629 43.9995 19.2629C44.186 19.2629 44.3659 19.3325 44.504 19.458L52.0045 26.2769C52.0818 26.3472 52.1436 26.4329 52.1859 26.5284C52.2282 26.624 52.25 26.7274 52.25 26.8319V35.5C52.25 35.5985 52.2306 35.696 52.1929 35.787C52.1552 35.878 52.1 35.9607 52.0303 36.0304C51.9606 36.1 51.878 36.1552 51.7869 36.1929C51.6959 36.2306 51.5984 36.25 51.4999 36.25L46.9994 36.2494C46.8005 36.2494 46.6097 36.1703 46.4691 36.0297C46.3285 35.889 46.2494 35.6983 46.2495 35.4994V35.4994Z" stroke="#B6B6B6" stroke-width="2" stroke-linecap="round" stroke-linejoin="round"/>
</g>
<defs>
<clipPath id="clip0_1_7151">
<rect width="24" height="24" fill="white" transform="translate(32 16)"/>
</clipPath>
</defs>
</svg>
