<svg width="24" height="24" viewBox="0 0 24 24" fill="none" xmlns="http://www.w3.org/2000/svg">
<path fill-rule="evenodd" clip-rule="evenodd" d="M10.875 4C7.07804 4 4 7.07804 4 10.875C4 14.672 7.07804 17.75 10.875 17.75C14.672 17.75 17.75 14.672 17.75 10.875C17.75 7.07804 14.672 4 10.875 4ZM2 10.875C2 5.97347 5.97347 2 10.875 2C15.7765 2 19.75 5.97347 19.75 10.875C19.75 15.7765 15.7765 19.75 10.875 19.75C5.97347 19.75 2 15.7765 2 10.875Z" fill="#13101E"/>
<path fill-rule="evenodd" clip-rule="evenodd" d="M15.736 15.7367C16.1266 15.3462 16.7597 15.3462 17.1503 15.7367L21.7066 20.293C22.0971 20.6835 22.0971 21.3167 21.7066 21.7072C21.316 22.0977 20.6829 22.0977 20.2923 21.7072L15.736 17.1509C15.3455 16.7604 15.3455 16.1272 15.736 15.7367Z" fill="#13101E"/>
</svg>
